<?xml version="1.0" encoding="utf-8"?>
<!-- Generator: Adobe Illustrator 25.2.0, SVG Export Plug-In . SVG Version: 6.00 Build 0)  -->
<svg version="1.1" id="Layer_1" xmlns="http://www.w3.org/2000/svg" xmlns:xlink="http://www.w3.org/1999/xlink" x="0px" y="0px"
	 viewBox="0 0 1440 320" style="enable-background:new 0 0 1440 320;" xml:space="preserve">
<style type="text/css">
	.st0{fill:#E9E9E9;}
</style>
<path class="st0" d="M0,160l40,21.3c43.7,16.5,111.4,35.7,193.2,31.6c116.3-5.8,141.5-52.8,246.8-52.9
	c118.9-0.1,124.8,59.7,240,58.7c120.1-1.1,129.9-66.3,247.6-64.6c94.6,1.3,114.7,43.8,232.4,59.2c84.6,11.1,155.6-0.3,200-10.6
	l40-10.7v128h-40c-40,0-120,0-200,0s-160,0-240,0s-160,0-240,0s-160,0-240,0s-160,0-240,0s-160,0-200,0H0V160z"/>
</svg>
